<svg version="1.1" id="Layer_1" xmlns="http://www.w3.org/2000/svg" xmlns:xlink="http://www.w3.org/1999/xlink" x="0px" y="0px"
	 width="100%" viewBox="0 0 512 512" enable-background="new 0 0 512 512" xml:space="preserve">
<path fill="#FEFEFE" opacity="1.000000" stroke="none" 
	d="
M503.000000,1.000005 
	C506.332611,1.000000 509.665192,1.000000 512.998352,1.000000 
	C512.998901,171.628891 512.998901,342.257782 512.998901,512.943359 
	C342.408203,512.943359 171.816360,512.943359 1.112261,512.943359 
	C1.112261,342.445312 1.112261,171.890503 1.112261,1.000000 
	C145.689819,1.000000 290.379883,1.000000 435.474060,1.334551 
	C418.931793,17.199488 401.957703,32.699898 385.077484,48.301880 
	C383.171173,50.063866 381.652710,50.725014 378.997040,49.786888 
	C344.802826,37.707607 309.547882,31.421501 273.290436,30.582157 
	C234.702499,29.688864 197.191635,34.484241 161.818680,51.050045 
	C111.423492,74.651031 84.651184,117.000168 87.137756,169.582489 
	C88.378944,195.829163 96.505424,219.202438 116.537979,237.358673 
	C127.915802,247.670807 141.148407,254.950684 155.155518,260.938934 
	C160.405762,263.183502 165.752609,265.202087 171.554672,267.523438 
	C127.940765,304.614899 87.557816,344.112061 50.044559,386.849396 
	C51.361774,387.956573 52.207825,388.734222 53.119968,389.424591 
	C70.829575,402.828308 89.597237,414.491669 109.591347,424.212799 
	C158.947128,448.209656 211.037231,461.472656 265.838409,463.649567 
	C305.629822,465.230255 344.826904,461.547760 381.971222,445.961700 
	C429.697357,425.935486 459.984131,392.011566 463.382324,338.541443 
	C465.457916,305.881989 457.251831,276.191864 431.967926,253.537903 
	C423.728546,246.155548 414.429474,239.660248 404.808868,234.172546 
	C379.569031,219.775421 351.823883,211.902512 323.811005,204.982880 
	C296.832611,198.318787 269.727051,192.131424 242.907471,184.883240 
	C233.565903,182.358627 224.613419,177.845428 216.028656,173.226669 
	C207.759399,168.777664 204.966766,160.750168 205.581207,151.544907 
	C206.231171,141.807175 211.341522,134.690796 219.022766,129.240417 
	C230.633575,121.001740 244.005981,118.488693 257.835419,118.196075 
	C280.871246,117.708679 302.807312,122.578842 323.524384,132.743652 
	C326.005035,133.960770 327.909302,134.606644 330.544403,132.157883 
	C382.822571,83.576225 439.377014,40.633179 500.515137,3.764076 
	C501.529999,3.152072 502.179840,1.934825 503.000000,1.000005 
z"/>
<path fill="#010101" opacity="1.000000" stroke="none" 
	d="
M502.531342,1.000005 
	C502.179840,1.934825 501.529999,3.152072 500.515137,3.764076 
	C439.377014,40.633179 382.822571,83.576225 330.544403,132.157883 
	C327.909302,134.606644 326.005035,133.960770 323.524384,132.743652 
	C302.807312,122.578842 280.871246,117.708679 257.835419,118.196075 
	C244.005981,118.488693 230.633575,121.001740 219.022766,129.240417 
	C211.341522,134.690796 206.231171,141.807175 205.581207,151.544907 
	C204.966766,160.750168 207.759399,168.777664 216.028656,173.226669 
	C224.613419,177.845428 233.565903,182.358627 242.907471,184.883240 
	C269.727051,192.131424 296.832611,198.318787 323.811005,204.982880 
	C351.823883,211.902512 379.569031,219.775421 404.808868,234.172546 
	C414.429474,239.660248 423.728546,246.155548 431.967926,253.537903 
	C457.251831,276.191864 465.457916,305.881989 463.382324,338.541443 
	C459.984131,392.011566 429.697357,425.935486 381.971222,445.961700 
	C344.826904,461.547760 305.629822,465.230255 265.838409,463.649567 
	C211.037231,461.472656 158.947128,448.209656 109.591347,424.212799 
	C89.597237,414.491669 70.829575,402.828308 53.119968,389.424591 
	C52.207825,388.734222 51.361774,387.956573 50.044559,386.849396 
	C87.557816,344.112061 127.940765,304.614899 171.554672,267.523438 
	C165.752609,265.202087 160.405762,263.183502 155.155518,260.938934 
	C141.148407,254.950684 127.915802,247.670807 116.537979,237.358673 
	C96.505424,219.202438 88.378944,195.829163 87.137756,169.582489 
	C84.651184,117.000168 111.423492,74.651031 161.818680,51.050045 
	C197.191635,34.484241 234.702499,29.688864 273.290436,30.582157 
	C309.547882,31.421501 344.802826,37.707607 378.997040,49.786888 
	C381.652710,50.725014 383.171173,50.063866 385.077484,48.301880 
	C401.957703,32.699898 418.931793,17.199488 435.939087,1.334551 
	C458.020905,1.000000 480.041779,1.000000 502.531342,1.000005 
M183.563187,348.995575 
	C219.583817,365.678406 257.279938,373.871429 297.057373,370.935547 
	C310.275543,369.959900 323.182587,367.339264 334.273407,359.362946 
	C341.167389,354.404938 344.938293,347.757294 345.044952,339.016846 
	C345.207550,325.687927 337.576691,317.460449 326.710785,312.175262 
	C316.280182,307.101807 305.515900,302.190735 294.361908,299.226746 
	C261.397003,290.466949 228.174545,282.673492 195.010574,274.677307 
	C193.758301,274.375397 191.595673,275.501038 190.656860,276.627716 
	C184.472565,284.049377 178.400299,291.571045 172.498291,299.219666 
	C164.881042,309.091125 157.457245,319.111877 149.310822,329.916229 
	C160.860413,336.373810 171.871124,342.530121 183.563187,348.995575 
z"/>
<path fill="#FDFDFD" opacity="1.000000" stroke="none" 
	d="
M183.222519,348.841003 
	C171.871124,342.530121 160.860413,336.373810 149.310822,329.916229 
	C157.457245,319.111877 164.881042,309.091125 172.498291,299.219666 
	C178.400299,291.571045 184.472565,284.049377 190.656860,276.627716 
	C191.595673,275.501038 193.758301,274.375397 195.010574,274.677307 
	C228.174545,282.673492 261.397003,290.466949 294.361908,299.226746 
	C305.515900,302.190735 316.280182,307.101807 326.710785,312.175262 
	C337.576691,317.460449 345.207550,325.687927 345.044952,339.016846 
	C344.938293,347.757294 341.167389,354.404938 334.273407,359.362946 
	C323.182587,367.339264 310.275543,369.959900 297.057373,370.935547 
	C257.279938,373.871429 219.583817,365.678406 183.222519,348.841003 
z"/>
</svg>